<svg aria-hidden="true" style="position:absolute;width:0;height:0" xmlns="http://www.w3.org/2000/svg" overflow="hidden"><defs><symbol id="icon-social-media" viewBox="0 0 32 32"><path d="M18.5 27h-1v-4.9a.5.5 0 00-1 0V27h-13V17h4.16a.5.5 0 000-1H3a.5.5 0 00-.5.5V27h-1a.5.5 0 00-.5.5v1A2.5 2.5 0 003.5 31h13a2.5 2.5 0 002.5-2.5v-1a.5.5 0 00-.5-.5zm-.5 1.5a1.5 1.5 0 01-1.5 1.5h-1v-.5a.5.5 0 00-1 0v.5h-9v-.5a.5.5 0 00-1 0v.5h-1A1.5 1.5 0 012 28.5V28h16zM27 4h1a.5.5 0 000-1h-1a1.5 1.5 0 00-1.5 1.5V5H25a.5.5 0 000 1h.5v1.5a.5.5 0 001 0V6h.5a.5.5 0 000-1h-.5v-.5A.5.5 0 0127 4z"/><path d="M29.5 1h-6A1.5 1.5 0 0022 2.5v1a.5.5 0 001 0v-1a.5.5 0 01.5-.5h6a.5.5 0 01.5.5v6a.5.5 0 01-.5.5h-6a.5.5 0 01-.5-.5v-3a.5.5 0 00-1 0v3a1.5 1.5 0 001.5 1.5h6A1.5 1.5 0 0031 8.5v-6A1.5 1.5 0 0029.5 1zm-5 20a2 2 0 102-2 2 2 0 00-2 2zm3 0a1 1 0 11-1-1 1 1 0 011 1z"/><path d="M29.5 16.5h-6A1.5 1.5 0 0022 18v6a1.5 1.5 0 001.5 1.5h6A1.5 1.5 0 0031 24v-1a.5.5 0 00-1 0v1a.5.5 0 01-.5.5h-6a.5.5 0 01-.5-.5v-6a.5.5 0 01.5-.5h6a.5.5 0 01.5.5v3a.5.5 0 001 0v-3a1.5 1.5 0 00-1.5-1.5zM12.235 6.925a.496.496 0 00.263.075h.002a.5.5 0 00.228-.056l-.003.001 3-1.5a.5.5 0 00.003-.889l-.003-.001-3-1.5a.5.5 0 00-.725.444V6.5a.5.5 0 00.233.423l.002.001zM13 4.31l1.38.69-1.38.69z"/><path d="M13.5 9.5A4.5 4.5 0 109 5a4.5 4.5 0 004.5 4.5zm0-8A3.5 3.5 0 1110 5a3.5 3.5 0 013.5-3.5zm5 10a.498.498 0 00.399-.199l.001-.001 1.5-2a.5.5 0 00-.799-.601L19.6 8.7l-1.5 2a.5.5 0 00.099.699l.001.001a.5.5 0 00.3.1zm1.1 1.8a.5.5 0 00.701.099l-.001.001 2-1.5a.5.5 0 10-.601-.799l.001-.001-2 1.5a.5.5 0 00-.099.701L19.6 13.3zm4.9 1.1a.5.5 0 00-.603-.4l.003-.001-2.5.5a.503.503 0 10.102.999H21.5h.1l2.5-.5a.5.5 0 00.4-.603l.001.003zm-23 .1h6A.5.5 0 008 14V6a.5.5 0 00-.5-.5h-6A.5.5 0 001 6v8a.5.5 0 00.5.5zm.5-8h5v7H2z"/><path d="M5.5 7.5h-1a.5.5 0 000 1h1a.5.5 0 000-1zm0 2h-2a.5.5 0 000 1h2a.5.5 0 000-1zm0 2h-2a.5.5 0 000 1h2a.5.5 0 000-1zm12.56 2.85a.501.501 0 10-.869.502l-.001-.002 2.205 3.815-8 3h-.075l-2.165 1.25a.994.994 0 01-.768.098l.007.002a1.004 1.004 0 01-.602-.46l-.003-.005-1-1.73a1 1 0 01.37-1.317l.004-.003 1.73-1 1.25 2.165a.5.5 0 00.433.25h.004a.5.5 0 00.432-.752l.001.002-1.29-2.23 6.275-5.175.205.355a.501.501 0 10.869-.502l.001.002-.5-.865a.504.504 0 00-.342-.24h-.003a.498.498 0 00-.411.105l.001-.001-7 5.77-2.13 1.23a2.003 2.003 0 00-.916 2.279l-.003-.014-.5.285a1.502 1.502 0 00.35 2.748l.011.002c.115.032.248.05.384.05h.006c.276-.001.534-.075.757-.204l-.007.004.5-.285c.234.242.53.422.861.517l.014.003c.153.044.329.07.511.07h.015-.001.005c.367 0 .71-.1 1.005-.275l-.009.005.435-.25 1 1.735a1.502 1.502 0 002.052.546l-.007.004a1.502 1.502 0 00.546-2.057l.004.007-.91-1.585 7.5-2.815a.504.504 0 00.294-.297l.001-.003a.497.497 0 00-.036-.417l.001.002zM6.25 22.895a.496.496 0 01-.383.049l.003.001a.5.5 0 01-.304-.228l-.001-.002a.496.496 0 01-.049-.383l-.001.003a.502.502 0 01.233-.304l.002-.001.435-.25.5.865zm6.58 1.4a.496.496 0 01.049.383l.001-.003a.502.502 0 01-.233.299l-.002.001a.501.501 0 01-.679-.178l-.001-.002-1-1.735.83-.475h.04z"/></symbol><symbol id="icon-blog" viewBox="0 0 32 32"><path d="M30.563 3.688H1.438A1.44 1.44 0 000 5.125v21.75a1.44 1.44 0 001.437 1.438h29.125A1.44 1.44 0 0032 26.876V5.126a1.44 1.44 0 00-1.437-1.437zM.875 5.125c0-.311.252-.562.562-.563h29.125c.311 0 .562.252.563.562v3.375H.875zm30.25 21.748a.563.563 0 01-.562.563H1.438a.564.564 0 01-.563-.561V9.376h30.25z"/><path d="M29.061 6.095h-1.438a.438.438 0 100 .876h1.438a.438.438 0 100-.876zm-3.844 0h-1.438a.438.438 0 100 .876h1.438a.438.438 0 100-.876zm-3.844 0h-1.438a.438.438 0 100 .876h1.438a.438.438 0 100-.876zM14.812 20.6h14.25a.438.438 0 00.438-.438v-8.725a.438.438 0 00-.438-.438h-14.25a.438.438 0 00-.438.438v8.725c0 .242.196.438.438.438zm13.813-.875H15.25v-1.331l3.867-2.644 9.508 3.773zm0-7.85v6.706l-9.4-3.732a.44.44 0 00-.41.046l.001-.001-3.567 2.438v-5.458z"/><path d="M24.805 16.085a1.617 1.617 0 10-1.617-1.617 1.618 1.618 0 001.617 1.617zm0-2.359a.742.742 0 11-.742.742c0-.41.332-.743.742-.743zm-21.867-1.85h9.373a.438.438 0 100-.876H2.938a.438.438 0 100 .876zm0 4.645h9.373a.438.438 0 100-.876H2.938a.438.438 0 100 .876zm0 4.645h9.373a.438.438 0 100-.876H2.938a.438.438 0 100 .876zm1-7.841a.438.438 0 100 .876h7.371a.438.438 0 100-.876zm0 4.644a.438.438 0 100 .876h7.371a.438.438 0 100-.876zm25.125 4.645H3.939a.438.438 0 100 .876h25.125a.438.438 0 100-.876zM2.938 25.812h26.125a.438.438 0 100-.876H2.938a.438.438 0 100 .876z"/></symbol><symbol id="icon-gallery" viewBox="0 0 32 32"><path d="M31.612 7.848a.468.468 0 00-.408-.42 57.203 57.203 0 00-4.887-.405c-.056-.732-.119-1.463-.188-2.194a.468.468 0 00-.408-.42 77.408 77.408 0 00-19.441 0 .469.469 0 00-.408.42c-.07.73-.132 1.462-.188 2.194a56.767 56.767 0 00-4.887.405.468.468 0 00-.408.42 85.877 85.877 0 000 16.303.47.47 0 00.408.421c1.625.205 3.266.341 4.887.405.056.732.119 1.463.188 2.193a.47.47 0 00.408.421c.871.11 1.734.205 2.566.281a.47.47 0 00.086-.934 76.537 76.537 0 01-2.161-.231 116.75 116.75 0 010-21.414 76.515 76.515 0 0118.46 0 116.75 116.75 0 010 21.414 76.372 76.372 0 01-14.446.382.469.469 0 00-.065.936 77.525 77.525 0 0015.001-.433.469.469 0 00.408-.421c.07-.73.132-1.461.188-2.193a56.767 56.767 0 004.887-.405.468.468 0 00.408-.421 85.887 85.887 0 000-16.304zM5.495 22.025a52.921 52.921 0 01-2.347-.157 82.99 82.99 0 010-11.737c.781-.07 1.566-.121 2.347-.157-.205 4.012-.205 8.04 0 12.051zm-4.209 1.662a84.913 84.913 0 010-15.376 56.038 56.038 0 014.329-.348c-.024.357-.048.713-.069 1.07-.958.042-1.925.108-2.882.2a.468.468 0 00-.422.431 83.977 83.977 0 000 12.669.468.468 0 00.422.431c.956.093 1.923.159 2.882.2.021.357.044.714.069 1.07a56.038 56.038 0 01-4.329-.348zm29.428 0a56.038 56.038 0 01-4.329.348c.024-.357.048-.713.069-1.07a55.705 55.705 0 002.882-.2.468.468 0 00.422-.431c.232-3.06.296-6.171.189-9.245a.468.468 0 10-.937.033 83.122 83.122 0 01-.158 8.747 52.82 52.82 0 01-2.347.157c.205-4.012.205-8.04 0-12.051.78.035 1.566.087 2.347.157.026.37.05.748.072 1.128a.469.469 0 00.468.442l.027-.001a.469.469 0 00.441-.495 82.97 82.97 0 00-.102-1.54.468.468 0 00-.422-.431 54.467 54.467 0 00-2.882-.2 94.482 94.482 0 00-.069-1.07c1.436.059 2.888.176 4.329.348a84.913 84.913 0 010 15.376z"/><path d="M23.966 25.892a.47.47 0 00.418-.428 119.211 119.211 0 00.235-3.507 116.733 116.733 0 00.155-5.958c0-3.132-.131-6.317-.389-9.465a.47.47 0 00-.418-.428 75.61 75.61 0 00-15.931 0 .47.47 0 00-.418.428 116.708 116.708 0 00-.39 9.465 115.628 115.628 0 00.39 9.465.468.468 0 00.418.428 75.642 75.642 0 0015.932 0zm-15.69-4.868a114.104 114.104 0 01-.109-5.798c1.549-.558 3.149-.756 4.647-.572 1.748.215 3.345.927 4.746 2.117 2.068 1.758 3.925 2.936 6.102 2.936l.111-.001c-.017.513-.037 1.029-.06 1.547-3.277-1.213-6.146-.598-8.696-.051-2.472.53-4.617.99-6.741-.178zM23.48 6.999a115.07 115.07 0 01.32 11.768c-1.958.047-3.681-1.053-5.632-2.71-2.781-2.363-6.389-3.013-9.988-1.826.037-2.398.151-4.825.34-7.231a74.64 74.64 0 0114.96 0zM8.445 23.989c-.044-.631-.083-1.264-.116-1.893.969.435 1.937.595 2.915.595 1.3 0 2.617-.282 3.971-.573 2.615-.561 5.316-1.14 8.449.119a117.467 117.467 0 01-.184 2.762c-4.966.5-9.994.5-14.96 0a159.9 159.9 0 01-.075-1.011z"/><path d="M19.623 15.186c1.664 0 3.017-1.354 3.017-3.017s-1.354-3.017-3.017-3.017-3.017 1.354-3.017 3.017 1.354 3.017 3.017 3.017zm0-5.098c1.147 0 2.08.933 2.08 2.08s-.933 2.08-2.08 2.08-2.08-.933-2.08-2.08.933-2.08 2.08-2.08z"/></symbol><symbol id="icon-instagram" viewBox="0 0 32 32"><path fill="var(--color1, #ff4334)" d="M18.813 16a2.813 2.813 0 11-5.626 0 2.813 2.813 0 015.626 0z"/><path fill="var(--color1, #ff4334)" d="M20.75 7.5h-9.5a3.754 3.754 0 00-3.75 3.75v9.5a3.754 3.754 0 003.75 3.75h9.5a3.754 3.754 0 003.75-3.75v-9.5a3.754 3.754 0 00-3.75-3.75zM16 20.688c-2.585 0-4.688-2.103-4.688-4.688s2.103-4.688 4.688-4.688 4.688 2.103 4.688 4.688-2.103 4.688-4.688 4.688zm5.375-9.125a.938.938 0 110-1.876.938.938 0 010 1.876z"/><path fill="var(--color1, #ff4334)" d="M23.563 0H8.438C3.786 0 0 3.785 0 8.438v15.125c0 4.652 3.785 8.438 8.438 8.438h15.125c4.652 0 8.438-3.785 8.438-8.438V8.438C32.001 3.786 28.216 0 23.563 0zm2.812 20.75a5.63 5.63 0 01-5.625 5.625h-9.5a5.63 5.63 0 01-5.625-5.625v-9.5a5.63 5.63 0 015.625-5.625h9.5a5.63 5.63 0 015.625 5.625z"/></symbol><symbol id="icon-facebook" viewBox="0 0 32 32"><path fill="var(--color1, #ff4334)" d="M27.313 0H4.688A4.694 4.694 0 000 4.688v22.625a4.694 4.694 0 004.688 4.688h9.438V20.688h-3.75v-5.625h3.75V11.25a5.63 5.63 0 015.625-5.625h5.688v5.625h-5.688v3.813h5.688l-.938 5.625h-4.75v11.313h7.563a4.694 4.694 0 004.688-4.688V4.688A4.694 4.694 0 0027.314 0z"/></symbol><symbol id="icon-forward" viewBox="0 0 32 32"><path d="M31.609 14.392L19.616 2.399a1.333 1.333 0 00-2.274.942v5.336c-7.668.314-14.357 5.491-16.5 12.91a21.83 21.83 0 00-.829 6.815l.005.259a1.333 1.333 0 002.477.683c5.278-8.872 12.271-9.124 14.846-8.873v6.859a1.331 1.331 0 002.274.942l11.993-11.993a1.33 1.33 0 000-1.884z"/></symbol><symbol id="icon-mail" viewBox="0 0 32 32"><path fill="var(--color1, #ff4334)" d="M29.188 3.813H2.813c-.433 0-.838.106-1.205.282l14.33 14.33 3.212-3.087L30.393 4.096a2.773 2.773 0 00-1.205-.282zm2.53 1.607L21.138 16l10.58 10.58c.175-.367.282-.772.282-1.205V6.625c0-.433-.106-.838-.282-1.204zm-31.436 0A2.787 2.787 0 000 6.625v18.75c0 .433.106.838.282 1.205L10.862 16 .282 5.42z"/><path fill="var(--color1, #ff4334)" d="M19.813 17.326l-3.212 3.087a.935.935 0 01-1.326 0l-3.087-3.087-10.58 10.58c.367.176.772.282 1.205.282h26.375c.433 0 .838-.106 1.205-.282l-10.58-10.58z"/></symbol><symbol id="icon-phone" viewBox="0 0 32 32"><path fill="var(--color1, #ff4334)" d="M29.432 21.004c-1.959 0-3.883-.306-5.706-.909-.893-.305-1.991-.025-2.537.535l-3.598 2.716c-4.173-2.227-6.743-4.797-8.94-8.938l2.636-3.504a2.585 2.585 0 00.636-2.621 18.192 18.192 0 01-.912-5.715A2.57 2.57 0 008.443 0H2.566A2.57 2.57 0 00-.002 2.568C-.002 18.797 13.201 32 29.43 32a2.57 2.57 0 002.568-2.568v-5.86a2.57 2.57 0 00-2.568-2.568z"/></symbol><symbol id="icon-pin" viewBox="0 0 32 32"><path fill="var(--color1, #ff4334)" d="M16 0C10.119 0 5.333 4.785 5.333 10.667c0 1.766.441 3.516 1.281 5.069l8.803 15.921a.667.667 0 001.166 0l8.806-15.926a10.683 10.683 0 001.277-5.064C26.666 4.786 21.881 0 15.999 0zm0 16c-2.941 0-5.333-2.393-5.333-5.333S13.06 5.334 16 5.334s5.333 2.393 5.333 5.333S18.94 16 16 16z"/></symbol><symbol id="icon-telegram" viewBox="0 0 32 32"><path fill="var(--color1, #ff4334)" d="M31.347 1.959v28.082a1.31 1.31 0 01-1.306 1.306H1.959a1.31 1.31 0 01-1.306-1.306V1.959A1.31 1.31 0 011.959.653h28.082a1.31 1.31 0 011.306 1.306z"/><path fill="var(--color2, #fff)" d="M24.986 7.02c1.463-.457 2.443.196 2.443 1.175 0 0-3.749 16.131-4.402 17.437s-1.633.653-1.633.653l-5.551-3.918-2.286 2.286c-1.306 1.306-1.959 0-1.959 0l-2.286-6.204s-3.638-.412-4.898-1.633c-1.149-1.111-.17-1.764-.17-1.764l20.741-8.033zm-9.639 10.972l8.816-8.49-13.061 7.511 1.959 5.224 2.286-4.245z"/><path fill="var(--color1, #ff4334)" d="M30.041 0H1.959C.879 0 0 .879 0 1.959v28.082C0 31.121.879 32 1.959 32h28.082c1.08 0 1.959-.879 1.959-1.959V1.959C32 .879 31.121 0 30.041 0zm.653 30.041c0 .36-.293.653-.653.653H1.959a.654.654 0 01-.653-.653V1.959c0-.36.293-.653.653-.653h28.082c.36 0 .653.293.653.653v28.082z"/><path fill="var(--color1, #ff4334)" d="M25.889 6.218c-.349 0-.719.06-1.098.179l-.041.014-20.741 8.033a.605.605 0 00-.126.066c-.062.041-.61.426-.674 1.138-.05.556.203 1.107.751 1.638 1.161 1.124 3.824 1.608 4.876 1.76l2.149 5.834a.488.488 0 00.029.066c.175.35.678.941 1.455.941.517 0 1.038-.26 1.55-.772l1.897-1.897 5.102 3.601.014.01c.068.046.435.273.934.273.395 0 1.133-.153 1.645-1.177.668-1.337 4.068-15.923 4.454-17.581a.665.665 0 00.017-.148c0-1.146-.922-1.978-2.192-1.978zm-3.446 19.123c-.104.208-.271.455-.477.455a.5.5 0 01-.214-.057l-5.532-3.905a.653.653 0 00-.838.072l-2.286 2.286c-.361.361-.571.389-.627.389-.13 0-.24-.149-.278-.207l-2.266-6.151a.652.652 0 00-.539-.423c-.951-.108-3.617-.581-4.518-1.453-.345-.334-.362-.525-.359-.576a.261.261 0 01.074-.149L25.2 7.637a2.38 2.38 0 01.689-.113c.201 0 .839.045.884.607-1.501 6.456-3.878 16.306-4.33 17.209z"/><path fill="var(--color1, #ff4334)" d="M23.838 8.935l-13.061 7.511a.653.653 0 00-.286.795l1.959 5.224c.09.24.312.405.567.422l.044.002c.239 0 .46-.131.575-.343l2.237-4.155 8.743-8.419a.653.653 0 00-.779-1.037zm-8.944 8.586a.64.64 0 00-.122.161l-1.604 2.979-1.26-3.359 7.977-4.587-4.991 4.806z"/></symbol><symbol id="icon-youtube" viewBox="0 0 32 32"><path fill="var(--color1, #ff4334)" d="M14.007 18.998L19.212 16l-5.205-2.998z"/><path fill="var(--color1, #ff4334)" d="M29.692 0H2.308A2.308 2.308 0 000 2.308v27.384A2.308 2.308 0 002.308 32h27.384A2.308 2.308 0 0032 29.692V2.308A2.308 2.308 0 0029.692 0zm-3.694 16.016s0 3.245-.412 4.81a2.506 2.506 0 01-1.762 1.762C22.259 23 16.001 23 16.001 23s-6.242 0-7.823-.428a2.504 2.504 0 01-1.762-1.762c-.412-1.548-.412-4.809-.412-4.809s0-3.245.412-4.809a2.557 2.557 0 011.762-1.779c1.565-.412 7.823-.412 7.823-.412s6.259 0 7.823.428c.856.23 1.532.906 1.762 1.762.428 1.565.412 4.826.412 4.826z"/></symbol></defs></svg>