<svg xmlns="http://www.w3.org/2000/svg" width="512" height="512" viewBox="0 0 511.942 511.942"><path d="M505.735 125.549a7.501 7.501 0 00-6.524-6.727 910.96 910.96 0 00-78.188-6.472 1865.655 1865.655 0 00-3.015-35.094 7.5 7.5 0 00-6.523-6.727 1238.753 1238.753 0 00-311.025 0 7.5 7.5 0 00-6.523 6.727 1865.655 1865.655 0 00-3.015 35.094 910.96 910.96 0 00-78.188 6.472 7.5 7.5 0 00-6.524 6.727c-8.276 86.536-8.276 174.29 0 260.826a7.501 7.501 0 006.524 6.727 910.96 910.96 0 0078.188 6.472 1865.338 1865.338 0 003.015 35.091 7.5 7.5 0 006.524 6.727 1216.448 1216.448 0 0041.045 4.498c4.104.38 7.776-2.657 8.155-6.782s-2.657-7.776-6.782-8.155a1188.55 1188.55 0 01-34.573-3.703c-10.491-113.694-10.491-228.885 0-342.578a1223.714 1223.714 0 01295.334 0c10.491 113.694 10.491 228.885 0 342.579-76.737 9.335-154.462 11.391-231.111 6.108a7.5 7.5 0 00-1.031 14.965 1225.408 1225.408 0 0084.239 2.891c51.973 0 104.094-3.28 155.749-9.822a7.5 7.5 0 006.523-6.727 1873.76 1873.76 0 003.015-35.091 910.558 910.558 0 0078.188-6.472 7.5 7.5 0 006.524-6.727c8.275-86.537 8.275-174.291-.001-260.827zM87.909 352.359a860.492 860.492 0 01-37.541-2.509 1329.741 1329.741 0 010-187.778 861.85 861.85 0 0137.541-2.509 1885.945 1885.945 0 000 192.796zm-67.33 26.595a1358.44 1358.44 0 010-245.984 895.835 895.835 0 0169.253-5.571c-.39 5.706-.762 11.413-1.1 17.124-15.332.667-30.803 1.725-46.102 3.205a7.5 7.5 0 00-6.757 6.898 1344.014 1344.014 0 000 202.673 7.5 7.5 0 006.757 6.898 874.58 874.58 0 0046.102 3.205c.338 5.711.71 11.418 1.101 17.124a896.401 896.401 0 01-69.254-5.572zm470.784 0a895.86 895.86 0 01-69.254 5.571c.391-5.706.762-11.413 1.101-17.124 15.331-.667 30.802-1.725 46.104-3.205a7.5 7.5 0 006.757-6.897c3.718-48.958 4.732-98.722 3.017-147.909-.144-4.14-3.664-7.382-7.757-7.234a7.498 7.498 0 00-7.233 7.757c1.622 46.523.774 93.57-2.52 139.938a860.687 860.687 0 01-37.543 2.509 1885.984 1885.984 0 000-192.798 860.583 860.583 0 0137.543 2.509c.419 5.914.807 11.96 1.157 18.05a7.5 7.5 0 1014.975-.861 1334.54 1334.54 0 00-1.639-24.638 7.5 7.5 0 00-6.757-6.897 874.655 874.655 0 00-46.104-3.205c-.338-5.71-.71-11.416-1.1-17.121a895.835 895.835 0 0169.253 5.571 1358.44 1358.44 0 010 245.984z"/><path d="M383.407 414.231a7.5 7.5 0 006.684-6.846c.607-7.422 1.183-15.014 1.707-22.561.783-11.194 1.471-22.48 2.042-33.542.76-14.634 1.347-29.37 1.744-43.79.488-17.058.736-34.395.736-51.531 0-50.11-2.096-101.056-6.229-151.424a7.5 7.5 0 00-6.683-6.845 1209.703 1209.703 0 00-254.875 0 7.5 7.5 0 00-6.683 6.845c-3.65 44.49-5.716 89.494-6.139 133.755-.061 5.87-.091 11.814-.091 17.669 0 28.194.666 56.848 1.98 85.168a1872.903 1872.903 0 002.541 43.691c.525 7.55 1.101 15.142 1.708 22.564a7.5 7.5 0 006.684 6.846c42.28 4.483 84.858 6.725 127.437 6.725s85.157-2.241 127.437-6.724zM132.408 336.34a1830.225 1830.225 0 01-1.787-80.378c0-4.102.021-8.245.051-12.381 24.78-8.925 50.384-12.088 74.347-9.146 27.971 3.434 53.518 14.83 75.929 33.868 33.088 28.12 62.8 46.978 97.62 46.976.588 0 1.18-.013 1.771-.023-.265 8.202-.584 16.469-.966 24.745-52.419-19.401-98.329-9.562-139.118-.811-39.541 8.482-73.867 15.842-107.847-2.85zM375.64 111.969c3.771 47.937 5.681 96.347 5.681 143.993 0 14.713-.196 29.566-.56 44.274-31.325.754-58.891-16.839-90.102-43.363-44.498-37.802-102.213-48.197-159.797-29.215a1848.2 1848.2 0 015.439-115.689 1194.765 1194.765 0 01239.339 0zM135.107 383.777a1861.097 1861.097 0 01-1.863-30.28c15.506 6.96 30.994 9.526 46.628 9.525 20.803-.001 41.86-4.517 63.53-9.166 41.833-8.975 85.043-18.243 135.174 1.905a1837.035 1837.035 0 01-1.742 28.018c-.375 5.396-.775 10.814-1.195 16.175a1195.774 1195.774 0 01-239.336 0c-.42-5.361-.82-10.779-1.196-16.177z"/><path d="M313.928 242.942c26.618 0 48.273-21.656 48.273-48.274s-21.655-48.274-48.273-48.274-48.274 21.656-48.274 48.274 21.656 48.274 48.274 48.274zm0-81.549c18.347 0 33.273 14.927 33.273 33.274s-14.927 33.274-33.273 33.274c-18.348 0-33.274-14.927-33.274-33.274s14.926-33.274 33.274-33.274z"/></svg>