<svg xmlns="http://www.w3.org/2000/svg" version="1.1" id="Capa_1" x="0" y="0" xml:space="preserve" width="512" height="512"><path d="M379.879 131.063c-28.418 0-51.537 23.12-51.537 51.537s23.119 51.537 51.537 51.537c28.417 0 51.537-23.119 51.537-51.537 0-28.419-23.119-51.537-51.537-51.537zm0 83.074c-17.39 0-31.537-14.147-31.537-31.537s14.147-31.537 31.537-31.537c17.389 0 31.537 14.147 31.537 31.537 0 17.388-14.147 31.537-31.537 31.537zm.351 237.044a9.87 9.87 0 00-.92-1.73 9.57 9.57 0 00-1.24-1.52 9.57 9.57 0 00-1.52-1.24 9.87 9.87 0 00-1.73-.92c-.6-.25-1.23-.45-1.87-.57a9.847 9.847 0 00-3.9 0c-.64.12-1.27.32-1.87.57-.61.25-1.19.56-1.73.92-.55.36-1.06.78-1.52 1.24-.46.46-.88.97-1.24 1.52a9.87 9.87 0 00-.92 1.73c-.25.6-.45 1.23-.57 1.87-.13.64-.2 1.3-.2 1.95 0 .65.07 1.31.2 1.95.12.64.32 1.27.57 1.87.25.61.56 1.19.92 1.73.36.55.78 1.06 1.24 1.52a9.316 9.316 0 001.52 1.24c.54.36 1.12.67 1.73.92.6.25 1.23.45 1.87.57.64.13 1.3.2 1.95.2.65 0 1.31-.07 1.95-.2.64-.12 1.27-.32 1.87-.57a9.87 9.87 0 001.73-.92 9.535 9.535 0 001.52-1.24c.46-.46.88-.97 1.24-1.52.36-.54.67-1.12.92-1.73.25-.6.45-1.23.58-1.87.13-.64.19-1.3.19-1.95s-.06-1.31-.19-1.95a10.08 10.08 0 00-.58-1.87zM222.85 55.451c-.25-.6-.56-1.18-.92-1.73-.36-.54-.78-1.06-1.24-1.52a9.57 9.57 0 00-1.52-1.24 9.87 9.87 0 00-1.73-.92c-.6-.25-1.23-.44-1.87-.57a9.847 9.847 0 00-3.9 0c-.64.13-1.27.32-1.88.57-.6.25-1.18.56-1.72.92-.55.36-1.06.78-1.52 1.24-.46.46-.88.98-1.25 1.52-.36.55-.66 1.13-.91 1.73-.25.6-.45 1.23-.57 1.87-.13.65-.2 1.3-.2 1.96 0 .65.07 1.3.2 1.95.12.64.32 1.27.57 1.87.25.6.55 1.18.91 1.73.37.54.79 1.06 1.25 1.52.46.46.97.88 1.52 1.24.54.36 1.12.67 1.72.92.61.25 1.24.44 1.88.57.64.13 1.3.2 1.95.2a10.098 10.098 0 003.82-.77 9.87 9.87 0 001.73-.92 9.57 9.57 0 001.52-1.24c.46-.46.88-.98 1.24-1.52.36-.55.67-1.13.92-1.73.25-.6.45-1.23.57-1.87.13-.65.2-1.3.2-1.95 0-.66-.07-1.31-.2-1.96-.12-.64-.32-1.27-.57-1.87z" data-original="#000000" class="active-path" data-old_color="#000000"/><path d="M456.128 49.318c-5.996-25.349-28.8-44.274-55.956-44.274H86.417C38.767 5.043 0 43.81 0 91.46v313.755c0 31.161 24.917 56.595 55.872 57.468 5.996 25.349 28.8 44.274 55.956 44.274H454.49c31.711 0 57.51-25.799 57.51-57.51V106.785c0-31.16-24.917-56.594-55.872-57.467zM492 449.449c0 20.683-16.827 37.51-37.51 37.51H111.828c-16.01 0-29.702-10.085-35.075-24.233a37.303 37.303 0 01-2.435-13.277v-53.052l114.725-194.524c3.493-5.922 9.722-9.38 16.556-9.27 6.875.118 12.942 3.792 16.23 9.831l49.396 90.702 71.801 131.843a9.996 9.996 0 0013.565 3.999c4.85-2.642 6.641-8.715 4-13.565l-23.3-42.785a41.248 41.248 0 0028.305-9.488l44.971-37.306c7.212-5.983 17.861-5.72 24.769.613l2.348 2.152 20 18.333L492 378.389v71.06zm0-98.192l-34.317-31.458-20-15.229c-13.031-5.45-28.525-3.554-39.886 5.87l-44.971 37.306a21.343 21.343 0 01-17.716 4.549 21.346 21.346 0 01-14.769-10.79l-31.552-57.936-17.618-32.351v-.001l-31.777-58.35c-6.778-12.445-19.284-20.02-33.453-20.262-14.165-.222-26.926 6.901-34.125 19.107L74.317 357.027V106.785c0-20.683 16.827-37.51 37.51-37.51h61.792c5.523 0 10-4.477 10-10s-4.477-10-10-10h-61.792c-31.711 0-57.51 25.799-57.51 57.51v335.794C35.124 440.952 20 424.822 20 405.215V91.46c0-36.623 29.795-66.417 66.417-66.417h313.755c16.01 0 29.702 10.085 35.075 24.233H253.619c-5.523 0-10 4.477-10 10s4.477 10 10 10h184.063l20 .146C476.876 71.048 492 87.178 492 106.785v244.472z" data-original="#000000" class="active-path" data-old_color="#000000"/></svg>