<svg xmlns="http://www.w3.org/2000/svg" width="512" height="512" viewBox="0 0 64 64"><path d="M37 54h-2v-9.8a1 1 0 00-2 0V54H7V34h8.32a1 1 0 000-2H6a1 1 0 00-1 1v21H3a1 1 0 00-1 1v2a5 5 0 005 5h26a5 5 0 005-5v-2a1 1 0 00-1-1zm-1 3a3 3 0 01-3 3h-2v-1a1 1 0 00-2 0v1H11v-1a1 1 0 00-2 0v1H7a3 3 0 01-3-3v-1h32zM54 8h2a1 1 0 000-2h-2a3 3 0 00-3 3v1h-1a1 1 0 000 2h1v3a1 1 0 002 0v-3h1a1 1 0 000-2h-1V9a1 1 0 011-1z"/><path d="M59 2H47a3 3 0 00-3 3v2a1 1 0 002 0V5a1 1 0 011-1h12a1 1 0 011 1v12a1 1 0 01-1 1H47a1 1 0 01-1-1v-6a1 1 0 00-2 0v6a3 3 0 003 3h12a3 3 0 003-3V5a3 3 0 00-3-3zM49 42a4 4 0 104-4 4 4 0 00-4 4zm6 0a2 2 0 11-2-2 2 2 0 012 2z"/><path d="M59 33H47a3 3 0 00-3 3v12a3 3 0 003 3h12a3 3 0 003-3v-2a1 1 0 00-2 0v2a1 1 0 01-1 1H47a1 1 0 01-1-1V36a1 1 0 011-1h12a1 1 0 011 1v6a1 1 0 002 0v-6a3 3 0 00-3-3zM24.47 13.85A1 1 0 0025 14a1 1 0 00.45-.11l6-3a1 1 0 000-1.78l-6-3A1 1 0 0024 7v6a1 1 0 00.47.85zM26 8.62L28.76 10 26 11.38z"/><path d="M27 19a9 9 0 10-9-9 9 9 0 009 9zm0-16a7 7 0 11-7 7 7 7 0 017-7zm10 20a1 1 0 00.8-.4l3-4a1 1 0 00-1.6-1.2l-3 4a1 1 0 00.2 1.4 1 1 0 00.6.2zm2.2 3.6a1 1 0 00.8.4 1 1 0 00.6-.2l4-3a1 1 0 10-1.2-1.6l-4 3a1 1 0 00-.2 1.4zm9.8 2.2a1 1 0 00-1.2-.8l-5 1a1 1 0 00.2 2h.2l5-1a1 1 0 00.8-1.2zM3 29h12a1 1 0 001-1V12a1 1 0 00-1-1H3a1 1 0 00-1 1v16a1 1 0 001 1zm1-16h10v14H4z"/><path d="M11 15H9a1 1 0 000 2h2a1 1 0 000-2zm0 4H7a1 1 0 000 2h4a1 1 0 000-2zm0 4H7a1 1 0 000 2h4a1 1 0 000-2zm25.12 5.7a1 1 0 00-1.74 1l4.41 7.63-16 6h-.15l-2.6 1.5-1.73 1a2 2 0 01-1.52.2 2 2 0 01-1.21-.93l-2-3.46a2 2 0 01.75-2.64l3.46-2 2.5 4.33a1 1 0 00.87.5 1 1 0 00.87-1.5l-2.58-4.46L32 25.52l.41.71a1 1 0 101.74-1l-1-1.73a1 1 0 00-.69-.48 1 1 0 00-.82.21l-14 11.54-4.26 2.46a4 4 0 00-1.84 4.53l-1 .57a3 3 0 00.72 5.5 3 3 0 00.78.1 3.06 3.06 0 001.5-.4l1-.57A3.88 3.88 0 0016.29 48a3.79 3.79 0 001.05.14 3.94 3.94 0 002-.54l.87-.5 2 3.47a3 3 0 004.09 1.1 3 3 0 001.1-4.1l-1.82-3.17 15-5.63a1 1 0 00.59-.6 1 1 0 00-.07-.83zM12.5 45.79a1 1 0 01-.76.1 1 1 0 01-.61-.46 1 1 0 01-.1-.76 1 1 0 01.47-.61l.87-.5 1 1.73zm13.16 2.8a1 1 0 01.1.76 1 1 0 01-.47.6 1 1 0 01-1.36-.36l-2-3.47 1.66-.95h.08z"/></svg>